<svg width="49" height="57" viewBox="0 0 49 57" fill="none" xmlns="http://www.w3.org/2000/svg">
<path d="M8.25 0.0625H28.5625V4.125H8.25C7.17256 4.125 6.13925 4.55301 5.37738 5.31488C4.61551 6.07675 4.1875 7.11006 4.1875 8.1875V48.8125C4.1875 49.8899 4.61551 50.9233 5.37738 51.6851C6.13925 52.447 7.17256 52.875 8.25 52.875H40.75C41.8274 52.875 42.8608 52.447 43.6226 51.6851C44.3845 50.9233 44.8125 49.8899 44.8125 48.8125V20.375H48.875V48.8125C48.875 50.9674 48.019 53.034 46.4952 54.5577C44.9715 56.0815 42.9049 56.9375 40.75 56.9375H8.25C6.09512 56.9375 4.02849 56.0815 2.50476 54.5577C0.981024 53.034 0.125 50.9674 0.125 48.8125V8.1875C0.125 6.03262 0.981024 3.96599 2.50476 2.44226C4.02849 0.918524 6.09512 0.0625 8.25 0.0625V0.0625Z" fill="black"/>
<path d="M28.5625 14.2812V0.0625L48.875 20.375H34.6562C33.0401 20.375 31.4901 19.733 30.3473 18.5902C29.2045 17.4474 28.5625 15.8974 28.5625 14.2812Z" fill="black"/>
<path fill-rule="evenodd" clip-rule="evenodd" d="M27.1241 22.9994C27.3128 22.8102 27.5369 22.6601 27.7837 22.5577C28.0305 22.4553 28.295 22.4026 28.5622 22.4026C28.8294 22.4026 29.094 22.4553 29.3407 22.5577C29.5875 22.6601 29.8117 22.8102 30.0003 22.9994L38.1253 31.1244C38.3145 31.3131 38.4646 31.5372 38.567 31.784C38.6694 32.0308 38.7221 32.2953 38.7221 32.5625C38.7221 32.8297 38.6694 33.0942 38.567 33.341C38.4646 33.5878 38.3145 33.8119 38.1253 34.0006L30.0003 42.1256C29.6189 42.507 29.1016 42.7213 28.5622 42.7213C28.0228 42.7213 27.5055 42.507 27.1241 42.1256C26.7427 41.7442 26.5284 41.2269 26.5284 40.6875C26.5284 40.1481 26.7427 39.6308 27.1241 39.2494L33.815 32.5625L27.1241 25.8756C26.9349 25.6869 26.7849 25.4628 26.6825 25.216C26.5801 24.9692 26.5273 24.7047 26.5273 24.4375C26.5273 24.1703 26.5801 23.9058 26.6825 23.659C26.7849 23.4122 26.9349 23.1881 27.1241 22.9994ZM21.8753 22.9994C21.6867 22.8102 21.4625 22.6601 21.2157 22.5577C20.969 22.4553 20.7044 22.4026 20.4372 22.4026C20.17 22.4026 19.9055 22.4553 19.6587 22.5577C19.4119 22.6601 19.1878 22.8102 18.9991 22.9994L10.8741 31.1244C10.6849 31.3131 10.5349 31.5372 10.4325 31.784C10.3301 32.0308 10.2773 32.2953 10.2773 32.5625C10.2773 32.8297 10.3301 33.0942 10.4325 33.341C10.5349 33.5878 10.6849 33.8119 10.8741 34.0006L18.9991 42.1256C19.3805 42.507 19.8978 42.7213 20.4372 42.7213C20.9766 42.7213 21.4939 42.507 21.8753 42.1256C22.2568 41.7442 22.471 41.2269 22.471 40.6875C22.471 40.1481 22.2568 39.6308 21.8753 39.2494L15.1844 32.5625L21.8753 25.8756C22.0645 25.6869 22.2146 25.4628 22.317 25.216C22.4194 24.9692 22.4721 24.7047 22.4721 24.4375C22.4721 24.1703 22.4194 23.9058 22.317 23.659C22.2146 23.4122 22.0645 23.1881 21.8753 22.9994V22.9994Z" fill="black"/>
</svg>
