<svg width="49" height="55" viewBox="0 0 49 55" fill="none" xmlns="http://www.w3.org/2000/svg">
<path d="M48.875 11.5417H41.725L44.8125 3.0375L38.4479 0.708334L34.4937 11.5417H0.125V16.9583L5.54167 33.2083L0.125 49.4583V54.875H48.875V49.4583L43.4583 33.2083L48.875 16.9583V11.5417ZM38.3125 34.9146L43.1604 49.4583H5.83958L10.6875 34.9146L11.2563 33.2083L10.6875 31.5021L5.83958 16.9583H43.1604L38.3125 31.5021L37.7437 33.2083L38.3125 34.9146V34.9146ZM27.2083 22.375H21.7917V30.5H13.6667V35.9167H21.7917V44.0417H27.2083V35.9167H35.3333V30.5H27.2083V22.375Z" fill="black"/>
</svg>
